<?xml version="1.0" encoding="UTF-8"?>
<svg xmlns="http://www.w3.org/2000/svg" width="1024" height="1024" viewBox="0 0 1024 1024" shape-rendering="geometricPrecision">
  <rect width="100%" height="100%" fill="#ffffff"/>
  <path d="M 810 801 L 808 804 L 808 912 L 809 914 L 812 916 L 901 916 L 903 914 L 903 891 L 900 888 L 849 888 L 846 884 L 846 873 L 849 870 L 891 870 L 893 868 L 892 844 L 890 843 L 849 843 L 846 840 L 846 831 L 849 828 L 899 828 L 902 824 L 901 802 L 898 800 L 812 800 Z" fill="#ff0000" fill-rule="evenodd"/>
  <path d="M 535 800 L 532 803 L 526 818 L 494 909 L 494 915 L 496 916 L 526 916 L 528 915 L 530 909 L 535 901 L 568 901 L 570 903 L 575 915 L 577 916 L 608 916 L 610 915 L 611 913 L 610 907 L 571 802 L 567 800 Z M 551 842 L 555 843 L 555 847 L 561 870 L 560 875 L 558 876 L 545 876 L 543 875 L 542 869 Z" fill="#ff0000" fill-rule="evenodd"/>
  <path d="M 362 800 L 359 803 L 359 913 L 363 916 L 451 916 L 453 915 L 454 913 L 454 892 L 451 888 L 399 888 L 397 886 L 397 873 L 401 870 L 443 869 L 443 844 L 441 843 L 400 843 L 397 840 L 397 831 L 400 828 L 447 828 L 451 825 L 451 803 L 447 800 Z" fill="#ff0000" fill-rule="evenodd"/>
  <path d="M 688 798 L 671 806 L 663 813 L 653 826 L 648 841 L 648 874 L 654 891 L 658 895 L 658 897 L 668 907 L 675 912 L 680 913 L 682 915 L 703 918 L 717 918 L 732 915 L 739 911 L 752 899 L 759 884 L 761 875 L 760 871 L 758 870 L 729 870 L 724 874 L 722 881 L 715 888 L 713 889 L 699 889 L 690 882 L 689 878 L 686 874 L 685 869 L 686 843 L 695 828 L 701 825 L 712 825 L 722 834 L 724 841 L 729 845 L 757 845 L 759 843 L 759 833 L 756 828 L 756 825 L 745 810 L 740 806 L 730 801 L 716 797 Z" fill="#ff0000" fill-rule="evenodd"/>
  <path d="M 110 96 L 109 916 L 313 916 L 317 721 L 450 717 L 504 704 L 567 676 L 605 702 L 642 717 L 687 726 L 733 726 L 772 718 L 809 702 L 840 680 L 874 642 L 910 567 L 921 525 L 925 478 L 786 478 L 768 540 L 736 574 L 719 579 L 691 578 L 677 574 L 660 561 L 675 509 L 685 449 L 685 359 L 675 303 L 662 265 L 669 254 L 685 245 L 710 243 L 744 255 L 769 285 L 786 342 L 922 341 L 917 286 L 893 213 L 861 164 L 830 135 L 789 112 L 734 97 L 686 96 L 647 102 L 572 138 L 523 112 L 464 97 Z M 313 229 L 459 228 L 463 233 L 462 312 L 375 313 L 372 317 L 373 362 L 375 364 L 447 365 L 449 367 L 449 447 L 447 449 L 375 449 L 372 453 L 372 501 L 377 505 L 465 505 L 467 507 L 467 586 L 463 589 L 314 589 L 310 584 L 310 234 Z M 578 143 L 590 152 L 624 189 L 639 212 L 645 226 L 648 229 L 649 236 L 653 241 L 658 256 L 658 262 L 644 280 L 643 285 L 639 291 L 639 294 L 635 300 L 630 315 L 630 321 L 626 331 L 621 369 L 619 416 L 621 468 L 623 484 L 625 489 L 626 503 L 635 531 L 640 541 L 649 554 L 652 556 L 656 564 L 647 582 L 644 585 L 644 588 L 639 595 L 639 597 L 635 601 L 634 605 L 630 609 L 625 618 L 615 630 L 586 658 L 568 671 L 564 671 L 538 643 L 523 622 L 522 618 L 514 606 L 514 603 L 509 596 L 505 584 L 500 576 L 499 570 L 496 566 L 495 558 L 491 551 L 490 543 L 487 536 L 487 531 L 483 519 L 481 503 L 477 488 L 476 465 L 474 460 L 472 402 L 474 362 L 477 335 L 479 331 L 482 315 L 482 308 L 484 305 L 490 278 L 495 268 L 496 260 L 499 255 L 501 247 L 504 243 L 505 237 L 514 222 L 514 219 L 518 214 L 520 208 L 523 205 L 524 201 L 531 192 L 533 187 L 565 151 L 574 143 Z" fill="#ff0000" fill-rule="evenodd"/>
</svg>
